<mxfile>
    <diagram id="HJD--8IuBJHRfJ3Lco-a" name="ページ1">
        <mxGraphModel dx="1700" dy="739" grid="0" gridSize="10" guides="0" tooltips="1" connect="1" arrows="1" fold="1" page="0" pageScale="1" pageWidth="827" pageHeight="1169" background="#FFF8E1" math="0" shadow="0">
            <root>
                <mxCell id="0"/>
                <mxCell id="1" parent="0"/>
                <mxCell id="2" value="AWS Cloud" style="outlineConnect=0;gradientColor=none;html=1;whiteSpace=wrap;fontSize=12;fontStyle=0;shape=mxgraph.aws4.group;grIcon=mxgraph.aws4.group_aws_cloud;fillColor=none;verticalAlign=top;align=left;spacingLeft=30;fontColor=#858B94;dashed=0;strokeColor=#FF8000;" parent="1" vertex="1">
                    <mxGeometry x="144" y="61" width="439" height="252" as="geometry"/>
                </mxCell>
                <mxCell id="3" value="" style="outlineConnect=0;dashed=0;verticalLabelPosition=bottom;verticalAlign=top;align=center;html=1;shape=mxgraph.aws3.api_gateway;fillColor=#D9A741;gradientColor=none;strokeColor=#FF8000;" parent="1" vertex="1">
                    <mxGeometry x="-335" y="501" width="76.5" height="93" as="geometry"/>
                </mxCell>
                <mxCell id="4" value="" style="points=[[0,0,0],[0.25,0,0],[0.5,0,0],[0.75,0,0],[1,0,0],[0,1,0],[0.25,1,0],[0.5,1,0],[0.75,1,0],[1,1,0],[0,0.25,0],[0,0.5,0],[0,0.75,0],[1,0.25,0],[1,0.5,0],[1,0.75,0]];outlineConnect=0;fontColor=#232F3E;gradientColor=#945DF2;gradientDirection=north;fillColor=#5A30B5;strokeColor=#ffffff;dashed=0;verticalLabelPosition=bottom;verticalAlign=top;align=center;html=1;fontSize=12;fontStyle=0;aspect=fixed;shape=mxgraph.aws4.resourceIcon;resIcon=mxgraph.aws4.api_gateway;" parent="1" vertex="1">
                    <mxGeometry x="-282" y="392" width="78" height="78" as="geometry"/>
                </mxCell>
                <mxCell id="5" value="Amazon API Gateway" style="outlineConnect=0;fontColor=#232F3E;gradientColor=none;strokeColor=#ffffff;fillColor=#232F3E;dashed=0;verticalLabelPosition=middle;verticalAlign=bottom;align=center;html=1;whiteSpace=wrap;fontSize=10;fontStyle=1;spacing=3;shape=mxgraph.aws4.productIcon;prIcon=mxgraph.aws4.api_gateway;" parent="1" vertex="1">
                    <mxGeometry x="-297" y="243" width="80" height="110" as="geometry"/>
                </mxCell>
                <mxCell id="9" value="" style="group" parent="1" vertex="1" connectable="0">
                    <mxGeometry x="218" y="132" width="291" height="110" as="geometry"/>
                </mxCell>
                <mxCell id="6" value="Amazon API Gateway" style="outlineConnect=0;fontColor=#232F3E;gradientColor=none;strokeColor=#ffffff;fillColor=#232F3E;dashed=0;verticalLabelPosition=middle;verticalAlign=bottom;align=center;html=1;whiteSpace=wrap;fontSize=10;fontStyle=1;spacing=3;shape=mxgraph.aws4.productIcon;prIcon=mxgraph.aws4.api_gateway;" parent="9" vertex="1">
                    <mxGeometry width="80" height="110" as="geometry"/>
                </mxCell>
                <mxCell id="7" value="AWS Lambda" style="outlineConnect=0;fontColor=#232F3E;gradientColor=none;strokeColor=#ffffff;fillColor=#232F3E;dashed=0;verticalLabelPosition=middle;verticalAlign=bottom;align=center;html=1;whiteSpace=wrap;fontSize=10;fontStyle=1;spacing=3;shape=mxgraph.aws4.productIcon;prIcon=mxgraph.aws4.lambda;" parent="9" vertex="1">
                    <mxGeometry x="211" width="80" height="100" as="geometry"/>
                </mxCell>
                <mxCell id="8" value="" style="endArrow=classic;html=1;strokeColor=#FF8000;strokeWidth=3;" parent="9" edge="1">
                    <mxGeometry width="50" height="50" relative="1" as="geometry">
                        <mxPoint x="104" y="42" as="sourcePoint"/>
                        <mxPoint x="188" y="42" as="targetPoint"/>
                    </mxGeometry>
                </mxCell>
                <mxCell id="11" value="" style="endArrow=classic;html=1;strokeColor=#FF8000;strokeWidth=3;" parent="1" edge="1">
                    <mxGeometry width="50" height="50" relative="1" as="geometry">
                        <mxPoint x="400" y="193" as="sourcePoint"/>
                        <mxPoint x="327" y="193" as="targetPoint"/>
                    </mxGeometry>
                </mxCell>
                <mxCell id="16" value="" style="group" parent="1" vertex="1" connectable="0">
                    <mxGeometry x="16" y="138" width="163" height="78" as="geometry"/>
                </mxCell>
                <mxCell id="13" value="" style="group" parent="16" vertex="1" connectable="0">
                    <mxGeometry y="28" width="163" height="22" as="geometry"/>
                </mxCell>
                <mxCell id="10" value="" style="endArrow=classic;html=1;strokeColor=#FF8000;strokeWidth=3;" parent="13" edge="1">
                    <mxGeometry width="50" height="50" relative="1" as="geometry">
                        <mxPoint as="sourcePoint"/>
                        <mxPoint x="163" as="targetPoint"/>
                    </mxGeometry>
                </mxCell>
                <mxCell id="12" value="" style="endArrow=classic;html=1;strokeColor=#FF8000;strokeWidth=3;" parent="13" edge="1">
                    <mxGeometry width="50" height="50" relative="1" as="geometry">
                        <mxPoint x="158" y="22" as="sourcePoint"/>
                        <mxPoint x="1" y="22" as="targetPoint"/>
                    </mxGeometry>
                </mxCell>
                <mxCell id="14" value="&lt;font color=&quot;#000000&quot; style=&quot;font-size: 16px;&quot;&gt;Req&lt;/font&gt;" style="text;html=1;strokeColor=none;fillColor=none;align=center;verticalAlign=middle;whiteSpace=wrap;rounded=0;fontSize=16;" parent="16" vertex="1">
                    <mxGeometry x="61.5" width="40" height="20" as="geometry"/>
                </mxCell>
                <mxCell id="15" value="&lt;font color=&quot;#000000&quot; style=&quot;font-size: 16px;&quot;&gt;Res&lt;/font&gt;" style="text;html=1;strokeColor=none;fillColor=none;align=center;verticalAlign=middle;whiteSpace=wrap;rounded=0;fontSize=16;" parent="16" vertex="1">
                    <mxGeometry x="61.5" y="58" width="40" height="20" as="geometry"/>
                </mxCell>
                <mxCell id="17" value="" style="shape=image;verticalLabelPosition=bottom;labelBackgroundColor=#ffffff;verticalAlign=top;aspect=fixed;imageAspect=0;image=data:image/svg+xml,PHN2ZyB4bWxucz0iaHR0cDovL3d3dy53My5vcmcvMjAwMC9zdmciIHdpZHRoPSIzMiIgaGVpZ2h0PSIzMiIgdmlld0JveD0iMCAwIDMyIDMyIj48ZGVmcz48c3R5bGU+LmNscy0xe2ZpbGw6I2Y0YjIyMzt9LmNscy0ye2ZpbGw6IzAwYjA3Mzt9LmNscy0ze2ZpbGw6IzNjYjRlNTt9LmNscy00e2ZpbGw6I2Q0MTM2Nzt9LmNscy01e2ZpbGw6I2ZmZjt9PC9zdHlsZT48L2RlZnM+PGcgaWQ9IkxheWVyXzIiIGRhdGEtbmFtZT0iTGF5ZXIgMiI+PGcgaWQ9IkxheWVyXzEtMiIgZGF0YS1uYW1lPSJMYXllciAxIj48cGF0aCBjbGFzcz0iY2xzLTEiIGQ9Ik0xNiwzMkExNiwxNiwwLDAsMCwzMiwxNkgxNloiLz48cGF0aCBjbGFzcz0iY2xzLTIiIGQ9Ik0zMiwxNkExNiwxNiwwLDAsMCwxNiwwVjE2WiIvPjxwYXRoIGNsYXNzPSJjbHMtMyIgZD0iTTE2LDBBMTYsMTYsMCwwLDAsMCwxNkgxNloiLz48cGF0aCBjbGFzcz0iY2xzLTQiIGQ9Ik0wLDE2QTE2LDE2LDAsMCwwLDE2LDMyVjE2WiIvPjxwb2x5Z29uIGNsYXNzPSJjbHMtNSIgcG9pbnRzPSIxNiAxNiA4Ljg0IDE2IDE2IDUuNjggMTYgMTYiLz48cG9seWdvbiBjbGFzcz0iY2xzLTUiIHBvaW50cz0iMTYgMTYgMTYgMjYuMzIgMjMuMTYgMTYgMTYgMTYiLz48L2c+PC9nPjwvc3ZnPg==;" parent="1" vertex="1">
                    <mxGeometry x="485" y="112" width="47" height="47" as="geometry"/>
                </mxCell>
                <mxCell id="18" value="Bolt.js" style="text;html=1;strokeColor=none;fillColor=none;align=center;verticalAlign=middle;whiteSpace=wrap;rounded=0;fontSize=16;fontColor=#000000;" parent="1" vertex="1">
                    <mxGeometry x="491" y="89" width="40" height="20" as="geometry"/>
                </mxCell>
            </root>
        </mxGraphModel>
    </diagram>
</mxfile>
